/* XPM */
static char * hide_inactive_xpm[] = {
"44 30 5 1",
" 	c None",
".	c #1A1A1A",
"+	c #1B1B1B",
"@	c #1C1C1C",
"#	c #1E1E1E",
"...........................................+",
"...........................................+",
"...........................................+",
"...........................................+",
"...........................................+",
"...........................................+",
"..........................................++",
"......................................+...++",
"..................................++.....+++",
".................................++++....+++",
"..................................++......++",
"..................................++......++",
"...........................................+",
".................................++........+",
".................................+++.......+",
"................................+++++......+",
"...............................+++++++.....+",
"...............................++++++......+",
"...............................++++++......+",
"...........................................+",
"..................................++.......+",
"............................................",
"............................................",
"............................................",
"............................................",
"...........................................+",
"...........................................+",
"..........................................++",
".........................................++@",
"+......................................++@@#"};
