/* XPM */
static char * maximize_toggled_active_xpm[] = {
"44 30 4 1",
" 	c None",
".	c #1A1A1A",
"+	c #1B1B1B",
"@	c #1C1C1C",
"............................................",
"............................................",
"............................................",
"............................................",
"............................................",
"............................................",
"............................................",
"............................................",
"............................................",
"............................................",
"............................................",
"............................................",
"............................................",
"............................................",
"............................................",
"............................................",
"............................................",
"...........................++++++...........",
".......................+++++++++++..........",
"........................+++++++++.........++",
".......................++++++++++.........++",
"......................+++++++++++........+++",
".....................+++++++++++++.......++@",
"....................+++++++++++++......++++@",
"........................................+++@",
"........................................+++@",
".........................................++@",
".........................................++@",
".........................................++@",
"........................................++@@"};
