/* XPM */
static char * maximize_toggled_inactive_xpm[] = {
"44 30 3 1",
" 	c None",
".	c #1A1A1A",
"+	c #1B1B1B",
"............................................",
"............................................",
"............................................",
"............................................",
"............................................",
"............................................",
"............................................",
"............................................",
"............................................",
"............................................",
"............................................",
"............................................",
"............................................",
"............................................",
"............................................",
"............................................",
"............................................",
"............................................",
"............................................",
"..............................+++++.........",
".........................++++++++++.........",
".......................+.+++++++++++........",
"......................+++++++++++++.........",
"..........................+.+.+.............",
"............................................",
"............................................",
"............................................",
"............................................",
"............................................",
"............................................"};
